<svg width="20" height="21" viewBox="0 0 20 21" fill="none" xmlns="http://www.w3.org/2000/svg">
<g clip-path="url(#clip0_507_11838)">
<path d="M16.3281 3H3.67188C3.02441 3 2.5 3.52441 2.5 4.17188V16.8281C2.5 17.4756 3.02441 18 3.67188 18H16.3281C16.9756 18 17.5 17.4756 17.5 16.8281V4.17188C17.5 3.52441 16.9756 3 16.3281 3ZM11.6553 9.22852L11.5703 10.3506H10.4189V14.2471H8.96582V10.3506H8.18945V9.22852H8.96582V8.47559C8.96582 8.14453 8.97461 7.63184 9.21484 7.3125C9.46973 6.97559 9.81836 6.74707 10.4189 6.74707C11.3975 6.74707 11.8076 6.8877 11.8076 6.8877L11.6143 8.03613C11.6143 8.03613 11.292 7.94238 10.9902 7.94238C10.6885 7.94238 10.4189 8.05078 10.4189 8.35254V9.22852H11.6553Z" fill="white"/>
</g>
<defs>
<clipPath id="clip0_507_11838">
<rect width="15" height="15" fill="white" transform="translate(2.5 3)"/>
</clipPath>
</defs>
</svg>
