<svg width="20" height="21" viewBox="0 0 20 21" fill="none" xmlns="http://www.w3.org/2000/svg">
<g clip-path="url(#clip0_507_11844)">
<path d="M15.25 3H4.75C3.50736 3 2.5 4.00736 2.5 5.25V15.75C2.5 16.9926 3.50736 18 4.75 18H15.25C16.4926 18 17.5 16.9926 17.5 15.75V5.25C17.5 4.00736 16.4926 3 15.25 3Z" fill="white"/>
<path d="M12.3145 17.619C12.7246 17.619 12.666 18.1171 12.666 18.1171H7.33401C7.33401 18.1171 7.27542 17.619 7.68557 17.619C8.06643 17.619 8.15432 17.4432 8.15432 17.2675L8.12503 15.8026C6.04495 16.2714 5.6055 14.9823 5.6055 14.9823C5.25393 14.1034 4.78518 13.8983 4.78518 13.8983C4.08206 13.4296 4.81448 13.4296 4.81448 13.4296C5.5762 13.4882 5.98636 14.1913 5.98636 14.1913C6.63089 15.3339 7.71487 15.0116 8.15432 14.8358C8.21292 14.3378 8.418 14.0155 8.62307 13.8104C6.95315 13.6347 5.22464 12.9901 5.22464 10.119C5.22464 9.29871 5.51761 8.62489 5.98636 8.09754C5.89847 7.92176 5.66409 7.16004 6.07425 6.13465C6.07425 6.13465 6.68948 5.92957 8.12503 6.89637C9.3555 6.54481 10.6446 6.54481 11.875 6.89637C13.3106 5.92957 13.9258 6.13465 13.9258 6.13465C14.336 7.16004 14.1016 7.92176 14.0137 8.09754C14.4824 8.62489 14.7754 9.29871 14.7754 10.119C14.7754 12.9901 13.0176 13.6347 11.3477 13.8104C11.6407 14.0448 11.875 14.5136 11.875 15.2167L11.8457 17.2675C11.8457 17.4432 11.9336 17.619 12.3145 17.619Z" fill="#181818"/>
</g>
<defs>
<clipPath id="clip0_507_11844">
<rect width="15" height="15" fill="white" transform="translate(2.5 3)"/>
</clipPath>
</defs>
</svg>
