<svg width="20" height="21" viewBox="0 0 20 21" fill="none" xmlns="http://www.w3.org/2000/svg">
<path d="M17.4945 4.56227C17.4025 3.66913 16.6621 3.00048 15.7626 3C11.9222 3 8.0824 3 4.24208 3.00097C4.13707 3.00097 4.03013 3.00871 3.92851 3.02855C3.07779 3.19111 2.5 3.89459 2.5 4.76015C2.5 6.67416 2.5 8.58817 2.5 10.5022C2.5 12.4123 2.5 14.3225 2.50097 16.2326C2.50097 16.3298 2.50823 16.4276 2.52032 16.5248C2.63162 17.3555 3.36959 17.9995 4.20917 18C8.0703 18 11.9319 18 15.793 17.9995C15.8593 17.9995 15.9247 17.9956 15.991 17.9884C16.8393 17.8887 17.4988 17.148 17.4988 16.294C17.5003 12.4326 17.5003 8.57172 17.4993 4.7108C17.5003 4.66048 17.5013 4.61162 17.4945 4.56227ZM10.0001 7.61665C11.5941 7.61617 12.8843 8.90411 12.8862 10.4993C12.8881 12.0935 11.6 13.3838 10.005 13.3848C8.40711 13.3853 7.11506 12.094 7.117 10.4973C7.11893 8.90749 8.41001 7.61665 10.0001 7.61665ZM15.7737 9.42567C15.7737 11.4969 15.7737 13.5687 15.7737 15.6414C15.7737 16.0313 15.5366 16.2708 15.1461 16.2708C11.9411 16.2708 8.73617 16.2708 5.53074 16.2708C5.29991 16.2708 5.07054 16.2713 4.83923 16.2708C4.47775 16.2703 4.2324 16.0245 4.2324 15.6636C4.23192 13.5822 4.2324 11.5008 4.2324 9.41889C4.2324 9.39809 4.2324 9.3768 4.2324 9.35213C4.66841 9.35213 5.09909 9.35213 5.53412 9.35213C5.24281 10.5273 5.37637 11.6517 5.95174 12.7152C6.37226 13.4912 6.97521 14.0946 7.74415 14.5286C9.26266 15.3854 11.1518 15.3046 12.5978 14.3166C13.4001 13.768 13.9769 13.0384 14.321 12.1293C14.6631 11.2221 14.7076 10.2961 14.4686 9.35019C14.9046 9.35019 15.3343 9.35019 15.7727 9.35019C15.7737 9.37583 15.7737 9.40051 15.7737 9.42567ZM15.7737 7.0259C15.7727 7.367 15.5216 7.61568 15.179 7.61617C15.1746 7.61617 15.1698 7.61617 15.1673 7.61617C14.8896 7.61617 14.6099 7.61617 14.3302 7.61617C14.0456 7.61617 13.7601 7.61665 13.4746 7.61568C13.146 7.61568 12.8905 7.37038 12.8886 7.04187C12.8847 6.4637 12.8847 5.88553 12.8886 5.30832C12.8905 4.97594 13.1451 4.73257 13.4795 4.73209C14.0485 4.73161 14.6162 4.73161 15.1843 4.73209C15.5211 4.73257 15.7732 4.98271 15.7742 5.32139C15.7747 5.89037 15.7747 6.45789 15.7737 7.0259Z" fill="white"/>
</svg>
