<svg width="20" height="21" viewBox="0 0 20 21" fill="none" xmlns="http://www.w3.org/2000/svg">
<g clip-path="url(#clip0_507_11840)">
<path d="M16.3281 3H3.67188C3.02441 3 2.5 3.52441 2.5 4.17188V16.8281C2.5 17.4756 3.02441 18 3.67188 18H16.3281C16.9756 18 17.5 17.4756 17.5 16.8281V4.17188C17.5 3.52441 16.9756 3 16.3281 3ZM7.90234 13.6377H6.44043V8.95898H7.90234V13.6377ZM7.13184 8.37305H7.12012C6.58984 8.37305 6.24707 8.01563 6.24707 7.56152C6.24707 7.09863 6.60156 6.75 7.14062 6.75C7.67969 6.75 8.01074 7.09863 8.02246 7.56152C8.02539 8.0127 7.68262 8.37305 7.13184 8.37305ZM13.75 13.6377H12.0918V11.2178C12.0918 10.585 11.834 10.1514 11.2627 10.1514C10.8262 10.1514 10.583 10.4443 10.4717 10.7256C10.4307 10.8252 10.4365 10.9658 10.4365 11.1094V13.6377H8.79297C8.79297 13.6377 8.81348 9.34863 8.79297 8.95898H10.4365V9.69434C10.5332 9.37207 11.0576 8.91504 11.8955 8.91504C12.9355 8.91504 13.75 9.58887 13.75 11.0361V13.6377Z" fill="white"/>
</g>
<defs>
<clipPath id="clip0_507_11840">
<rect width="15" height="15" fill="white" transform="translate(2.5 3)"/>
</clipPath>
</defs>
</svg>
